<svg version="1.1" id="Layer_1" xmlns="http://www.w3.org/2000/svg" xmlns:xlink="http://www.w3.org/1999/xlink" x="0px" y="0px"
	 width="100%" viewBox="0 0 50 50" enable-background="new 0 0 50 50" xml:space="preserve">
<path fill="#FBFCFF" opacity="1.000000" stroke="none" 
	d="
M28.000162,51.000000 
	C18.666779,51.000000 9.833448,51.000000 1.000090,51.000000 
	C1.000060,34.333382 1.000060,17.666761 1.000030,1.000108 
	C17.666611,1.000072 34.333221,1.000072 50.999874,1.000036 
	C50.999916,17.666603 50.999916,34.333206 50.999958,50.999905 
	C43.500072,51.000000 36.000145,51.000000 28.000162,51.000000 
M15.079195,26.485443 
	C15.117928,26.657108 15.156660,26.828775 14.965775,27.688793 
	C9.733124,34.211037 11.588581,40.609413 15.301049,48.010273 
	C18.560968,42.854015 21.359327,38.427822 24.413296,33.597321 
	C27.900928,37.905197 30.398794,43.194084 34.552258,45.496975 
	C38.651485,47.769806 44.425491,47.022030 49.464760,47.599419 
	C49.593670,47.146584 49.722580,46.693748 49.851486,46.240913 
	C43.575123,38.372257 37.298756,30.503599 31.020699,22.632820 
	C34.884308,16.138966 38.574661,9.936318 42.427189,3.461092 
	C35.276260,2.178565 29.072689,1.407876 26.202253,9.364981 
	C26.067602,9.738248 25.414299,9.924417 24.525225,10.071808 
	C24.525225,10.071808 24.040012,9.980965 23.620665,9.227521 
	C21.467588,9.151590 19.309376,8.950659 17.163048,9.038891 
	C15.414874,9.110756 12.796683,8.902168 12.090215,9.899188 
	C8.603045,14.820527 5.623695,20.101698 2.032614,25.961864 
	C7.108894,25.961864 11.060155,25.961864 15.079195,26.485443 
z"/>
<path fill="#2942FF" opacity="1.000000" stroke="none" 
	d="
M25.002541,10.197721 
	C25.414299,9.924417 26.067602,9.738248 26.202253,9.364981 
	C29.072689,1.407876 35.276260,2.178565 42.427189,3.461092 
	C38.574661,9.936318 34.884308,16.138966 31.020699,22.632820 
	C37.298756,30.503599 43.575123,38.372257 49.851486,46.240913 
	C49.722580,46.693748 49.593670,47.146584 49.464760,47.599419 
	C44.425491,47.022030 38.651485,47.769806 34.552258,45.496975 
	C30.398794,43.194084 27.900928,37.905197 24.413296,33.597321 
	C21.359327,38.427822 18.560968,42.854015 15.301049,48.010273 
	C11.588581,40.609413 9.733124,34.211037 15.413857,27.275925 
	C16.563505,25.253759 17.265072,23.644466 17.982307,22.018692 
	C17.997980,22.002211 18.029358,21.969286 18.379154,21.939911 
	C20.820148,18.006262 22.911345,14.101992 25.002541,10.197721 
z"/>
<path fill="#2942FF" opacity="1.000000" stroke="none" 
	d="
M15.011415,25.961864 
	C11.060155,25.961864 7.108894,25.961864 2.032614,25.961864 
	C5.623695,20.101698 8.603045,14.820527 12.090215,9.899188 
	C12.796683,8.902168 15.414874,9.110756 17.163048,9.038891 
	C19.309376,8.950659 21.467588,9.151590 23.555317,9.830530 
	C21.669765,14.278790 19.849562,18.124039 18.029358,21.969286 
	C18.029358,21.969286 17.997980,22.002211 17.630796,22.045553 
	C16.512880,23.379885 15.762147,24.670874 15.011415,25.961864 
z"/>
<path fill="#2B44FF" opacity="1.000000" stroke="none" 
	d="
M18.379156,21.939911 
	C19.849562,18.124039 21.669765,14.278790 23.764992,10.207253 
	C24.040012,9.980965 24.525225,10.071808 24.763882,10.134765 
	C22.911345,14.101992 20.820148,18.006262 18.379156,21.939911 
z"/>
<path fill="#2B44FF" opacity="1.000000" stroke="none" 
	d="
M15.045305,26.223654 
	C15.762147,24.670874 16.512880,23.379885 17.615124,22.062035 
	C17.265072,23.644466 16.563505,25.253759 15.528666,26.931749 
	C15.156660,26.828775 15.117928,26.657108 15.045305,26.223654 
z"/>
</svg>